<svg width="16" height="19" viewBox="0 0 16 19" fill="none" xmlns="http://www.w3.org/2000/svg">
<path d="M13.28 10.72V6.51C13.28 3.88 12 1.95 9.43 1.44C9.43 1.05809 9.27829 0.691819 9.00823 0.421766C8.73818 0.151714 8.37191 0 7.99 0C7.60809 0 7.24182 0.151714 6.97177 0.421766C6.70171 0.691819 6.55 1.05809 6.55 1.44C4 1.97 2.72 3.89 2.72 6.51V10.72L0 12.91V15.46H5.33C5.33 16.1681 5.6113 16.8473 6.11203 17.348C6.61275 17.8487 7.29187 18.13 8 18.13C8.70813 18.13 9.38725 17.8487 9.88797 17.348C10.3887 16.8473 10.67 16.1681 10.67 15.46H16V12.91L13.28 10.72ZM14.5 13.96H1.5V13.63L3.66 11.89L4.22 11.44V6.51C4.22 4.82 4.88 2.8 8.02 2.8C10.52 2.8 11.78 4.05 11.78 6.51V11.44L12.34 11.89L14.5 13.63V13.96Z" fill="black"/>
</svg>
