<svg xmlns="http://www.w3.org/2000/svg" viewBox="0 0 465.86 200"><defs><style>.cls-1{fill:#231f20;}.cls-2{font-size:104px;font-family:Barlow-Bold, Barlow;font-weight:700;letter-spacing:-0.05em;}</style></defs><g id="FT_Bug_-_BLACK" data-name="FT Bug - BLACK"><path class="cls-1" d="M168.16,64.61a1.83,1.83,0,0,1-.52,1.36,1.86,1.86,0,0,1-1.35.52H148.85a.65.65,0,0,0-.73.73v55.47a1.85,1.85,0,0,1-.52,1.36,1.87,1.87,0,0,1-1.36.52H132.67a1.87,1.87,0,0,1-1.36-.52,1.85,1.85,0,0,1-.52-1.36V67.22a.65.65,0,0,0-.73-.73l-43.64-.1a.64.64,0,0,0-.73.73v12.4a.64.64,0,0,0,.73.73h20.15a1.85,1.85,0,0,1,1.36.53,1.83,1.83,0,0,1,.52,1.35v11A1.78,1.78,0,0,1,106.57,95H86.42a.64.64,0,0,0-.73.73v27a1.78,1.78,0,0,1-1.88,1.88H70.24a1.78,1.78,0,0,1-1.88-1.88V53.46a1.83,1.83,0,0,1,.52-1.36,1.86,1.86,0,0,1,1.36-.52h96.05a1.86,1.86,0,0,1,1.35.52,1.83,1.83,0,0,1,.52,1.36Zm23.47-19L154.22,8.27A21.14,21.14,0,0,0,139.29,2.1H88.06A21.14,21.14,0,0,0,73.13,8.27L35.72,45.64a17,17,0,0,0-5,12v52.76a21.26,21.26,0,0,0,6.24,15l36.18,36.15A21.07,21.07,0,0,0,88,167.77h26.64l.08,30a1.27,1.27,0,0,0,2.17.9l74.69-74.4a17,17,0,0,0,5-12V57.67a17,17,0,0,0-5-12"/></g><g id="Optix"><text id="Optix_Black" class="cls-2" transform="translate(212.89 124.99)">Optix</text></g></svg>