<svg width="36" height="36" viewBox="0 0 36 36" fill="none" xmlns="http://www.w3.org/2000/svg">
<g clip-path="url(#clip0_3560_2457)">
<path d="M18 8C16.0222 8 14.0888 8.58649 12.4443 9.6853C10.7998 10.7841 9.51809 12.3459 8.76121 14.1732C8.00433 16.0004 7.8063 18.0111 8.19215 19.9509C8.578 21.8907 9.53041 23.6725 10.9289 25.0711C12.3275 26.4696 14.1093 27.422 16.0491 27.8079C17.9889 28.1937 19.9996 27.9957 21.8268 27.2388C23.6541 26.4819 25.2159 25.2002 26.3147 23.5557C27.4135 21.9112 28 19.9778 28 18C28 15.3478 26.9464 12.8043 25.0711 10.9289C23.1957 9.05357 20.6522 8 18 8ZM18.75 23.75H17.25V22.25H18.75V23.75ZM19 21H17C17 17.75 20 18 20 16C20 15.4696 19.7893 14.9609 19.4142 14.5858C19.0391 14.2107 18.5304 14 18 14C17.4696 14 16.9609 14.2107 16.5858 14.5858C16.2107 14.9609 16 15.4696 16 16H14C14 14.9391 14.4214 13.9217 15.1716 13.1716C15.9217 12.4214 16.9391 12 18 12C19.0609 12 20.0783 12.4214 20.8284 13.1716C21.5786 13.9217 22 14.9391 22 16C22 18.5 19 18.75 19 21Z" fill="black"/>
</g>
<defs>
<clipPath id="clip0_3560_2457">
<rect width="20" height="20" fill="white" transform="translate(8 8)"/>
</clipPath>
</defs>
</svg>
