<svg width="16" height="16" viewBox="0 0 16 16" fill="none" xmlns="http://www.w3.org/2000/svg">
<g clip-path="url(#clip0_3555_1668)">
<path d="M12.91 1.99952H10.44C10.3162 1.44472 10.007 0.948668 9.56348 0.593168C9.11992 0.237668 8.56844 0.0439453 8 0.0439453C7.43156 0.0439453 6.88008 0.237668 6.43652 0.593168C5.99296 0.948668 5.68379 1.44472 5.56 1.99952H3.11C2.97854 1.98425 2.84536 1.99523 2.71818 2.03182C2.591 2.06841 2.47235 2.12988 2.3691 2.21266C2.26585 2.29545 2.18006 2.3979 2.1167 2.51409C2.05334 2.63028 2.01367 2.75789 2 2.88952V15.0695C2.00878 15.2028 2.04417 15.3329 2.10407 15.4523C2.16397 15.5717 2.24717 15.6778 2.34877 15.7645C2.45037 15.8512 2.5683 15.9166 2.69561 15.957C2.82291 15.9974 2.95702 16.0118 3.09 15.9995H5V14.4995H3.5V3.49952H12.5V6.51952H14V2.88952C13.9722 2.62749 13.8421 2.38701 13.638 2.22035C13.4339 2.0537 13.1723 1.97434 12.91 1.99952ZM8 2.55952C7.87457 2.56149 7.7514 2.52598 7.64628 2.45752C7.54116 2.38906 7.45887 2.29078 7.40995 2.17526C7.36103 2.05975 7.34772 1.93226 7.3717 1.80912C7.39569 1.68599 7.4559 1.57282 7.5446 1.48412C7.63331 1.39542 7.74647 1.33521 7.86961 1.31122C7.99274 1.28723 8.12023 1.30055 8.23574 1.34947C8.35126 1.39839 8.44954 1.48068 8.518 1.5858C8.58646 1.69092 8.62198 1.81409 8.62 1.93952C8.62 2.10395 8.55468 2.26165 8.43841 2.37793C8.32213 2.4942 8.16443 2.55952 8 2.55952ZM15 13.5595V14.9995H9V13.4995L15 13.5595ZM7.5 13.5595V14.9995H6V13.4995L7.5 13.5595ZM15 7.55952V8.99952H9V7.51952L15 7.55952ZM7.5 7.55952V8.99952H6V7.51952L7.5 7.55952ZM16.02 10.5595V11.9995H10V10.4995L16.02 10.5595ZM8.52 10.5595V11.9995H7V10.4995L8.52 10.5595Z" fill="white"/>
</g>
<defs>
<clipPath id="clip0_3555_1668">
<rect width="16" height="16" fill="white"/>
</clipPath>
</defs>
</svg>
