<svg width="160" height="160" viewBox="0 0 160 160" fill="none" xmlns="http://www.w3.org/2000/svg">
<g clip-path="url(#clip0_3589_1279)">
<path d="M16.8733 69.5534L1.65333 99.6134C-0.82 104.507 -0.5 110.347 2.49333 114.933L20.9133 143.14C23.9133 147.727 29.1267 150.373 34.6 150.073L68.24 148.227C73.7133 147.927 78.6133 144.727 81.0867 139.84L96.3067 109.78C98.78 104.887 98.46 99.0467 95.4667 94.46L77.0467 66.2534C74.0467 61.6667 68.8333 59.02 63.36 59.32L29.72 61.1667C24.2467 61.4667 19.3467 64.6667 16.8733 69.5534Z" fill="#BAD0E2"/>
<path d="M13.6867 10.66L16.2333 12.8533" stroke="#5D6063" stroke-width="2" stroke-miterlimit="10"/>
<path d="M19.0333 15.3933L21.58 17.5866" stroke="#5D6063" stroke-width="2" stroke-miterlimit="10"/>
<path d="M18.9067 12.7267L21.1 10.18" stroke="#5D6063" stroke-width="2" stroke-miterlimit="10"/>
<path d="M14.1667 18.0667L16.36 15.52" stroke="#5D6063" stroke-width="2" stroke-miterlimit="10"/>
<path d="M74.2333 152.587L76.7867 154.78" stroke="#5D6063" stroke-width="2" stroke-miterlimit="10"/>
<path d="M79.58 157.327L82.1267 159.52" stroke="#5D6063" stroke-width="2" stroke-miterlimit="10"/>
<path d="M79.4533 154.66L81.6467 152.107" stroke="#5D6063" stroke-width="2" stroke-miterlimit="10"/>
<path d="M74.72 160L76.9067 157.453" stroke="#5D6063" stroke-width="2" stroke-miterlimit="10"/>
<path d="M143.053 132.6C144.894 132.6 146.387 131.108 146.387 129.267C146.387 127.426 144.894 125.933 143.053 125.933C141.212 125.933 139.72 127.426 139.72 129.267C139.72 131.108 141.212 132.6 143.053 132.6Z" stroke="#5D6063" stroke-width="2" stroke-miterlimit="10"/>
<path d="M3.49334 64.2467C5.33429 64.2467 6.82667 62.7543 6.82667 60.9133C6.82667 59.0724 5.33429 57.58 3.49334 57.58C1.65239 57.58 0.160004 59.0724 0.160004 60.9133C0.160004 62.7543 1.65239 64.2467 3.49334 64.2467Z" stroke="#5D6063" stroke-width="2" stroke-miterlimit="10"/>
<path d="M126.147 19.24C131.46 19.24 135.767 14.933 135.767 9.62C135.767 4.30702 131.46 0 126.147 0C120.834 0 116.527 4.30702 116.527 9.62C116.527 14.933 120.834 19.24 126.147 19.24Z" fill="#BAD0E2"/>
<path d="M154.553 121.66C157.561 121.66 160 119.221 160 116.213C160 113.205 157.561 110.767 154.553 110.767C151.545 110.767 149.107 113.205 149.107 116.213C149.107 119.221 151.545 121.66 154.553 121.66Z" fill="#BAD0E2"/>
<path d="M145.98 57.5867V60.82" stroke="#5D6063" stroke-width="2" stroke-miterlimit="10"/>
<path d="M145.98 64.4533V67.6866" stroke="#5D6063" stroke-width="2" stroke-miterlimit="10"/>
<path d="M140.933 62.64H144.16" stroke="#5D6063" stroke-width="2" stroke-miterlimit="10"/>
<path d="M147.8 62.64H151.033" stroke="#5D6063" stroke-width="2" stroke-miterlimit="10"/>
<path d="M132.953 25.7533H27.0467V145.347H132.953V25.7533Z" fill="#E7EBEE" stroke="#5D6063" stroke-width="2.5"/>
<path d="M102.08 22.0733V21.3867C102.08 17.6667 99.0667 14.6533 95.3467 14.6533H64.6533C60.9333 14.6533 57.92 17.6667 57.92 21.3867V22.0733H50.8467V38.96H109.153V22.0733H102.08Z" fill="white" stroke="#5D6063" stroke-width="2.5"/>
<path d="M123.987 35.88H36.0133V135.22H123.987V35.88Z" fill="white" stroke="#5D6063" stroke-width="2.5"/>
<path d="M108.233 66.9933H51.76V74.8933H108.233V66.9933Z" fill="#E7EBEE"/>
<path d="M108.233 81.6H51.76V89.5H108.233V81.6Z" fill="#E7EBEE"/>
<path d="M108.233 96.2067H51.76V104.107H108.233V96.2067Z" fill="#E7EBEE"/>
<path d="M93.48 18.2867H66.4467C63.8767 18.2867 61.7933 20.3686 61.7933 22.9367C61.7933 25.5048 63.8767 27.5867 66.4467 27.5867H93.48C96.05 27.5867 98.1333 25.5048 98.1333 22.9367C98.1333 20.3686 96.05 18.2867 93.48 18.2867Z" fill="#E7EBEE"/>
</g>
<defs>
<clipPath id="clip0_3589_1279">
<rect width="160" height="160" fill="white"/>
</clipPath>
</defs>
</svg>
