<svg width="36" height="36" viewBox="0 0 36 36" fill="none" xmlns="http://www.w3.org/2000/svg">
<path d="M23.28 19.69V15.48C23.28 12.85 22 10.92 19.43 10.41C19.43 10.0281 19.2783 9.66182 19.0082 9.39177C18.7382 9.12171 18.3719 8.97 17.99 8.97C17.6081 8.97 17.2418 9.12171 16.9718 9.39177C16.7017 9.66182 16.55 10.0281 16.55 10.41C14 10.94 12.72 12.86 12.72 15.48V19.69L10 21.88V24.43H15.33C15.33 25.1381 15.6113 25.8173 16.112 26.318C16.6127 26.8187 17.2919 27.1 18 27.1C18.7081 27.1 19.3873 26.8187 19.888 26.318C20.3887 25.8173 20.67 25.1381 20.67 24.43H26V21.88L23.28 19.69ZM24.5 22.93H11.5V22.6L13.66 20.86L14.22 20.41V15.48C14.22 13.79 14.88 11.77 18.02 11.77C20.52 11.77 21.78 13.02 21.78 15.48V20.41L22.34 20.86L24.5 22.6V22.93Z" fill="black"/>
</svg>
