<svg width="20" height="20" viewBox="0 0 20 20" fill="none" xmlns="http://www.w3.org/2000/svg">
<g clip-path="url(#clip0_3563_4683)">
<path d="M19.64 12.54L17.38 10.6V9.25999L19.79 7.46999C19.94 7.31999 20.09 7.01999 19.94 6.86999L17.68 3.13999C17.53 2.98999 17.23 2.83999 17.08 2.98999L14.37 4.02999C13.98 3.75999 13.58 3.50999 13.17 3.27999L12.72 0.439993C12.71 0.199993 12.51 0.00999324 12.27 -0.0100068H7.75C7.53 -0.0400068 7.32 0.119993 7.3 0.339993C7.3 0.369993 7.3 0.399993 7.3 0.439993L6.85 3.27999C6.4 3.43999 5.99 3.68999 5.65 4.02999L2.94 2.98999C2.64 2.83999 2.49 2.98999 2.34 3.13999L0.0599958 6.86999C-0.0900042 7.01999 0.0599958 7.31999 0.209996 7.46999L2.62 9.25999V10.6L0.209996 12.54C0.0599958 12.69 -0.0900042 12.99 0.0599958 13.14L2.32 16.87C2.47 17.02 2.77 17.17 2.92 17.02L5.63 15.98C6.02 16.25 6.42 16.5 6.83 16.73L7.28 19.57C7.29 19.81 7.49 20 7.73 20.02H12.1C12.32 20.05 12.53 19.89 12.55 19.67C12.55 19.64 12.55 19.61 12.55 19.57L13 16.73C13.45 16.57 13.86 16.32 14.2 15.98L16.91 17.02C17.21 17.17 17.36 17.02 17.51 16.87L19.77 13.14C19.91 12.99 19.89 12.75 19.74 12.61C19.71 12.58 19.67 12.56 19.62 12.54H19.64ZM10 13.78C7.87 13.78 6.14 12.05 6.14 9.91999C6.14 7.78999 7.87 6.05999 10 6.05999C12.13 6.05999 13.86 7.78999 13.86 9.91999C13.86 12.05 12.13 13.78 10 13.78Z" fill="#3E4144"/>
</g>
<defs>
<clipPath id="clip0_3563_4683">
<rect width="20" height="20" fill="white"/>
</clipPath>
</defs>
</svg>
