<svg width="12" height="12" viewBox="0 0 12 12" fill="none" xmlns="http://www.w3.org/2000/svg">
<path d="M12 6C12 9.31371 9.31371 12 6 12C2.68629 12 0 9.31371 0 6C0 2.68629 2.68629 0 6 0C9.31371 0 12 2.68629 12 6Z" fill="#006B24"/>
<path fill-rule="evenodd" clip-rule="evenodd" d="M6 11C8.76142 11 11 8.76142 11 6C11 3.23858 8.76142 1 6 1C3.23858 1 1 3.23858 1 6C1 8.76142 3.23858 11 6 11ZM6 12C9.31371 12 12 9.31371 12 6C12 2.68629 9.31371 0 6 0C2.68629 0 0 2.68629 0 6C0 9.31371 2.68629 12 6 12Z" fill="white"/>
<path fill-rule="evenodd" clip-rule="evenodd" d="M4.76777 8.57051L3 6.80274L3.70711 6.09563L5.47487 7.8634L4.76777 8.57051Z" fill="white"/>
<path fill-rule="evenodd" clip-rule="evenodd" d="M9.10073 4.70738L4.99951 8.8086L4.29241 8.10149L8.39362 4.00027L9.10073 4.70738Z" fill="white"/>
</svg>
