<svg width="20" height="20" viewBox="0 0 20 20" fill="none" xmlns="http://www.w3.org/2000/svg">
<g clip-path="url(#clip0_3563_4686)">
<path d="M10 0C8.02219 0 6.08879 0.58649 4.4443 1.6853C2.79981 2.78412 1.51809 4.3459 0.761209 6.17317C0.00433284 8.00043 -0.193701 10.0111 0.192152 11.9509C0.578004 13.8907 1.53041 15.6725 2.92894 17.0711C4.32746 18.4696 6.10929 19.422 8.0491 19.8079C9.98891 20.1937 11.9996 19.9957 13.8268 19.2388C15.6541 18.4819 17.2159 17.2002 18.3147 15.5557C19.4135 13.9112 20 11.9778 20 10C20 7.34783 18.9464 4.8043 17.0711 2.92893C15.1957 1.05357 12.6522 0 10 0ZM10 18.5C8.31886 18.5 6.67548 18.0015 5.27766 17.0675C3.87984 16.1335 2.79037 14.806 2.14703 13.2528C1.50368 11.6996 1.33536 9.99057 1.66333 8.34173C1.9913 6.69289 2.80085 5.17834 3.9896 3.98959C5.17834 2.80085 6.6929 1.9913 8.34174 1.66332C9.99058 1.33535 11.6996 1.50368 13.2528 2.14702C14.806 2.79037 16.1335 3.87983 17.0675 5.27765C18.0015 6.67547 18.5 8.31886 18.5 10C18.4974 12.2535 17.601 14.414 16.0075 16.0075C14.414 17.601 12.2535 18.4974 10 18.5Z" fill="#3E4144"/>
<path d="M6.53 9.71C6.88309 9.70332 7.22812 9.60326 7.53 9.42C7.41753 9.23846 7.32052 9.04779 7.24 8.85C6.95965 8.10896 6.95965 7.29104 7.24 6.55C7.31831 6.3594 7.41195 6.17546 7.52 6C7.21812 5.81674 6.87309 5.71668 6.52 5.71C5.98957 5.71 5.48086 5.92071 5.10579 6.29579C4.73071 6.67086 4.52 7.17957 4.52 7.71C4.52 8.24043 4.73071 8.74914 5.10579 9.12421C5.48086 9.49928 5.98957 9.71 6.52 9.71H6.53Z" fill="#3E4144"/>
<path d="M13 9.42C13.3019 9.60326 13.6469 9.70332 14 9.71C14.5304 9.71 15.0391 9.49928 15.4142 9.12421C15.7893 8.74914 16 8.24043 16 7.71C16 7.17957 15.7893 6.67086 15.4142 6.29579C15.0391 5.92071 14.5304 5.71 14 5.71C13.6469 5.71668 13.3019 5.81674 13 6C13.1125 6.18154 13.2095 6.37221 13.29 6.57C13.4303 6.93745 13.5047 7.32672 13.51 7.72C13.5047 8.11327 13.4303 8.50255 13.29 8.87C13.2085 9.06093 13.1115 9.24487 13 9.42Z" fill="#3E4144"/>
<path d="M6.29 10.16C5.52352 10.16 4.78844 10.4645 4.24646 11.0065C3.70448 11.5484 3.4 12.2835 3.4 13.05V13.73H5.9V13.05C5.90369 11.9779 6.32311 10.9491 7.07 10.18H6.76L6.29 10.16Z" fill="#3E4144"/>
<path d="M14.26 10.16H13.48C14.2269 10.9291 14.6463 11.9579 14.65 13.03V13.71H17.15V13.03C17.1447 12.267 16.8379 11.537 16.2965 10.9994C15.7551 10.4617 15.023 10.16 14.26 10.16Z" fill="#3E4144"/>
<path d="M12.15 10.67C11.6674 10.3383 11.0956 10.1605 10.51 10.16H10C9.23352 10.16 8.49844 10.4645 7.95646 11.0065C7.41448 11.5484 7.11 12.2835 7.11 13.05V13.73H13.4V13.05C13.4018 12.5814 13.2888 12.1195 13.0709 11.7046C12.853 11.2897 12.5368 10.9345 12.15 10.67Z" fill="#3E4144"/>
<path d="M10.28 9.71C10.6869 9.70929 11.084 9.58445 11.4181 9.35217C11.7522 9.11989 12.0076 8.7912 12.15 8.41C12.3237 7.9526 12.3237 7.4474 12.15 6.99C12.0069 6.60762 11.7502 6.27819 11.4144 6.04597C11.0786 5.81376 10.6798 5.68987 10.2715 5.69096C9.86325 5.69205 9.46509 5.81806 9.13053 6.05206C8.79598 6.28607 8.54105 6.61686 8.4 7C8.22631 7.4574 8.22631 7.9626 8.4 8.42C8.54465 8.80093 8.80219 9.12859 9.13817 9.35913C9.47415 9.58967 9.87254 9.71209 10.28 9.71Z" fill="#3E4144"/>
</g>
<defs>
<clipPath id="clip0_3563_4686">
<rect width="20" height="20" fill="white"/>
</clipPath>
</defs>
</svg>
