<svg width="20" height="20" viewBox="0 0 20 20" fill="none" xmlns="http://www.w3.org/2000/svg">
<g clip-path="url(#clip0_3563_4689)">
<path d="M10.32 10H9.68C8.61913 10 7.60172 10.4214 6.85157 11.1716C6.10143 11.9217 5.68 12.9391 5.68 14V15H14.43V14C14.4235 13.4673 14.3119 12.9411 14.1017 12.4515C13.8915 11.962 13.5868 11.5188 13.205 11.1472C12.8232 10.7756 12.3718 10.483 11.8768 10.2862C11.3817 10.0893 10.8527 9.99207 10.32 10Z" fill="#3E4144"/>
<path d="M10 0C8.02219 0 6.08879 0.58649 4.4443 1.6853C2.79981 2.78412 1.51809 4.3459 0.761209 6.17317C0.00433284 8.00043 -0.193701 10.0111 0.192152 11.9509C0.578004 13.8907 1.53041 15.6725 2.92894 17.0711C4.32746 18.4696 6.10929 19.422 8.0491 19.8079C9.98891 20.1937 11.9996 19.9957 13.8268 19.2388C15.6541 18.4819 17.2159 17.2002 18.3147 15.5557C19.4135 13.9112 20 11.9778 20 10C20 7.34783 18.9464 4.8043 17.0711 2.92893C15.1957 1.05357 12.6522 0 10 0ZM10 18.5C8.31886 18.5 6.67548 18.0015 5.27766 17.0675C3.87984 16.1335 2.79037 14.806 2.14703 13.2528C1.50368 11.6996 1.33536 9.99057 1.66333 8.34173C1.9913 6.69289 2.80085 5.17834 3.9896 3.98959C5.17834 2.80085 6.6929 1.9913 8.34174 1.66332C9.99058 1.33535 11.6996 1.50368 13.2528 2.14702C14.806 2.79037 16.1335 3.87983 17.0675 5.27765C18.0015 6.67547 18.5 8.31886 18.5 10C18.4974 12.2535 17.601 14.414 16.0075 16.0075C14.414 17.601 12.2535 18.4974 10 18.5Z" fill="#3E4144"/>
<path d="M10 9.35C11.5519 9.35 12.81 8.09192 12.81 6.54C12.81 4.98808 11.5519 3.73 10 3.73C8.44808 3.73 7.19 4.98808 7.19 6.54C7.19 8.09192 8.44808 9.35 10 9.35Z" fill="#3E4144"/>
</g>
<defs>
<clipPath id="clip0_3563_4689">
<rect width="20" height="20" fill="white"/>
</clipPath>
</defs>
</svg>
